<svg id="Layer_1" data-name="Layer 1" xmlns="http://www.w3.org/2000/svg" viewBox="0 0 576.51 412.87"><defs><style>.cls-1{fill:#010101;}.cls-2{fill:#ed1f24;}.cls-3{fill:#fff;}.cls-4{font-size:83.74px;fill:#ffcd07;stroke:#484b93;stroke-miterlimit:10;stroke-width:4.75px;font-family:Pokemon Solid;}.cls-5{letter-spacing:8px;}.cls-6{fill:#8c6856;}.cls-7{fill:#718bc6;}.cls-8{fill:#ef7e2d;}</style></defs><title>Pokenalysis Art</title><path class="cls-1" d="M154.49,80.88A139.53,139.53,0,0,0,14.92,220.45C14.92,297.21,77.73,360,154.49,360H591.43v-21.2l-436.94.26s109-65.87,113.88-108.19l25.33-.12c0.27-3.5.36-6.76,0.36-10.33A139.53,139.53,0,0,0,154.49,80.88Z" transform="translate(-14.92 -80.88)"/><path class="cls-2" d="M154.49,101.81A119.13,119.13,0,0,1,273.13,210H200.55c-4.88-20.94-23.73-37-46.06-37S113.32,189,108.43,210H35.86A119.13,119.13,0,0,1,154.49,101.81Z" transform="translate(-14.92 -80.88)"/><path class="cls-3" d="M181,220.45a26.52,26.52,0,1,1-26.52-26.52A26.51,26.51,0,0,1,181,220.45Z" transform="translate(-14.92 -80.88)"/><path class="cls-3" d="M154.49,339.08A119.13,119.13,0,0,1,35.86,230.92h72.58c4.88,20.94,23.73,37,46.06,37s41.17-16.05,46.06-37h72.58A119.13,119.13,0,0,1,154.49,339.08Z" transform="translate(-14.92 -80.88)"/><text class="cls-4" transform="translate(24.4 370.79)">P<tspan class="cls-5" x="46.8" y="0">o</tspan><tspan class="cls-5" x="96.71" y="0">ken</tspan><tspan class="cls-5" x="260.75" y="0">a</tspan><tspan class="cls-5" x="311.33" y="0">lysis</tspan></text><rect class="cls-6" x="313.67" y="149.5" width="52.54" height="101.52"/><rect class="cls-7" x="399.6" y="101.5" width="52.54" height="149.31"/><rect class="cls-8" x="483.18" y="127.61" width="52.54" height="123.21"/></svg>